<svg xmlns="http://www.w3.org/2000/svg" version="1.1" xmlns:xlink="http://www.w3.org/1999/xlink" xmlns:svgjs="http://svgjs.com/svgjs" width="1000" height="1000"><rect width="1000" height="1000" rx="100" ry="100" fill="#ffffff"></rect><g transform="matrix(3.90625,0,0,3.90625,-0.000011086463928222656,0.000011086463928222656)"><svg xmlns="http://www.w3.org/2000/svg" version="1.1" xmlns:xlink="http://www.w3.org/1999/xlink" xmlns:svgjs="http://svgjs.com/svgjs" width="256" height="256"><svg xmlns="http://www.w3.org/2000/svg" width="256" height="256" viewBox="0 0 100 100"><path d="M17.03 71.75L17.84 50.64L18.24 50.64L23.64 71.75L34.25 71.75L39.59 50.64L40.05 50.64L40.86 71.75L55.42 71.75L52.81 28.25L34.60 28.25L29.21 50.41L28.68 50.41L23.29 28.25L5.14 28.25L2.47 71.75L17.03 71.75ZM83.61 61.25L83.61 61.25L74.56 61.25L74.56 71.75L60.64 71.75L60.64 28.25L82.57 28.25Q97.53 28.25 97.53 44.32L97.53 44.32Q97.53 47.85 96.84 50.93Q96.14 54.00 94.49 56.29Q92.83 58.58 90.19 59.92Q87.56 61.25 83.61 61.25ZM77.75 39.39L77.75 39.39L74.56 39.39L74.56 50.12L77.75 50.12Q80.30 50.12 81.44 49.59Q82.57 49.07 82.57 47.16L82.57 47.16L82.57 42.29Q82.57 40.43 81.44 39.91Q80.30 39.39 77.75 39.39Z" fill="#315b6c"></path></svg></svg></g></svg>